<svg width="25" height="23" viewBox="0 0 25 23" fill="none" xmlns="http://www.w3.org/2000/svg">
<path d="M9.20833 2V21.2222M16.4167 2V21.2222M3.20139 21.2222H22.4236C22.7422 21.2222 23.0478 21.0956 23.2731 20.8703C23.4984 20.645 23.625 20.3395 23.625 20.0208V3.20139C23.625 2.88276 23.4984 2.57718 23.2731 2.35188C23.0478 2.12657 22.7422 2 22.4236 2H3.20139C2.88276 2 2.57718 2.12657 2.35188 2.35188C2.12657 2.57718 2 2.88276 2 3.20139V20.0208C2 20.3395 2.12657 20.645 2.35188 20.8703C2.57718 21.0956 2.88276 21.2222 3.20139 21.2222Z" stroke="#00B4D8" stroke-width="2.40278" stroke-linejoin="round"/>
</svg>
