<svg width="60" height="76" viewBox="0 0 60 76" fill="none" xmlns="http://www.w3.org/2000/svg">
<path d="M59.1484 22.2581L37.7419 0.851613C37.1981 0.307007 36.4599 0.000696774 35.6903 0H26.129C23.3059 0 20.5981 1.12154 18.6018 3.11791C16.6054 5.11425 15.4839 7.82187 15.4839 10.6452V15.4839H10.6452C7.82187 15.4839 5.11424 16.6054 3.11791 18.6018C1.12154 20.5981 0 23.3057 0 26.129V64.8387C0 67.6618 1.12154 70.3696 3.11791 72.3658C5.11424 74.3625 7.82187 75.4839 10.6452 75.4839H37.7419C40.565 75.4839 43.2728 74.3625 45.269 72.3658C47.2657 70.3696 48.3871 67.6618 48.3871 64.8387V60H49.3548C52.1779 60 54.8857 58.8786 56.8819 56.8819C58.8786 54.8857 60 52.1779 60 49.3548V24.1936C59.9694 23.4643 59.6655 22.7733 59.1484 22.2581ZM38.7097 9.90968L50.0903 21.2903H38.7097V9.90968ZM42.5806 64.8387C42.5806 66.1219 42.0708 67.3529 41.1635 68.2603C40.2561 69.1676 39.0252 69.6774 37.7419 69.6774H10.6452C9.36186 69.6774 8.13112 69.1676 7.22369 68.2603C6.31626 67.3529 5.80645 66.1219 5.80645 64.8387V26.129C5.80645 24.8457 6.31626 23.615 7.22369 22.7076C8.13112 21.8001 9.36186 21.2903 10.6452 21.2903H15.4839V49.3548C15.4839 52.1779 16.6054 54.8857 18.6018 56.8819C20.5981 58.8786 23.3059 60 26.129 60H42.5806V64.8387ZM49.3548 54.1936H26.129C24.8458 54.1936 23.6148 53.6837 22.7075 52.7764C21.8001 51.869 21.2903 50.6381 21.2903 49.3548V10.6452C21.2903 9.36186 21.8001 8.13112 22.7075 7.22369C23.6148 6.31626 24.8458 5.80645 26.129 5.80645H32.9032V24.1936C32.9133 24.9604 33.2222 25.693 33.7645 26.2354C34.3068 26.7777 35.0396 27.0868 35.8065 27.0968H54.1935V49.3548C54.1935 50.6381 53.6837 51.869 52.7764 52.7764C51.869 53.6837 50.6381 54.1936 49.3548 54.1936Z" fill="#00B4D8"/>
</svg>
