<svg width="25" height="24" viewBox="0 0 25 24" fill="none" xmlns="http://www.w3.org/2000/svg">
<path d="M24.0059 12.1054C24.0059 8.95296 22.7618 5.92967 20.5473 3.70058C18.3327 1.47149 15.3292 0.219198 12.1974 0.219198C9.22388 0.216434 6.35882 1.34293 4.17447 3.37368C1.99012 5.40443 0.647305 8.18992 0.414248 11.1737C0.181191 14.1576 1.07505 17.1201 2.91728 19.4695C4.75951 21.8189 7.41448 23.3822 10.3519 23.8472V15.5405H7.35587V12.1054H10.3535V9.48701C10.3535 6.50868 12.1164 4.8616 14.8138 4.8616C16.106 4.8616 17.4572 5.09423 17.4572 5.09423V8.01992H15.9677C14.5 8.01992 14.0446 8.93685 14.0446 9.87586V12.1054H17.3189L16.796 15.5405H14.0429V23.8472C16.8204 23.4045 19.3499 21.9787 21.1762 19.8262C23.0026 17.6738 24.006 14.936 24.0059 12.1054Z" fill="#03045E"/>
</svg>
