<svg width="25" height="25" viewBox="0 0 25 25" fill="none" xmlns="http://www.w3.org/2000/svg">
<path fill-rule="evenodd" clip-rule="evenodd" d="M12.7668 0.761608C6.03279 0.761608 0.572998 6.18458 0.572998 12.8752C0.572998 18.2266 4.06688 22.7665 8.91316 24.3689C9.52313 24.4797 9.7454 24.1057 9.7454 23.7842C9.7454 23.4974 9.73525 22.7353 9.72916 21.7247C6.33676 22.4565 5.62124 20.1006 5.62124 20.1006C5.06658 18.7019 4.26682 18.3294 4.26682 18.3294C3.15954 17.5774 4.35055 17.5925 4.35055 17.5925C5.57456 17.6787 6.21853 18.841 6.21853 18.841C7.30653 20.6919 9.07301 20.1571 9.76772 19.8476C9.87886 19.0648 10.193 18.5311 10.5421 18.2281C7.83429 17.9227 4.98691 16.8828 4.98691 12.2416C4.98691 10.9195 5.46241 9.83787 6.24238 8.99108C6.11703 8.68462 5.69838 7.45325 6.36163 5.78538C6.36163 5.78538 7.38569 5.45977 9.71546 7.02734C10.6883 6.75868 11.7316 6.6241 12.7684 6.61957C13.8041 6.6241 14.8474 6.75868 15.8218 7.02734C18.15 5.45977 19.172 5.78538 19.172 5.78538C19.8373 7.45325 19.4187 8.68462 19.2933 8.99108C20.0748 9.83787 20.5473 10.9195 20.5473 12.2416C20.5473 16.8949 17.6953 17.9186 14.9784 18.2185C15.4168 18.5925 15.8065 19.3315 15.8065 20.462C15.8065 22.081 15.7918 23.3875 15.7918 23.7842C15.7918 24.1088 16.011 24.4858 16.6301 24.3673C21.4724 22.762 24.9632 18.2251 24.9632 12.8752C24.9632 6.18458 19.5029 0.761608 12.7668 0.761608Z" fill="#03045E"/>
</svg>
