<svg width="24" height="24" viewBox="0 0 24 24" fill="none" xmlns="http://www.w3.org/2000/svg">
<path d="M16.71 6.7768C15.5034 5.6134 13.8976 4.97734 12.2363 5.00477C9.19254 5.00477 6.60774 7.08564 5.68648 9.88377C5.19788 11.3503 5.19788 12.9401 5.68648 14.4067H5.69145C6.61602 17.2031 9.19586 19.2823 12.2396 19.2823C13.8104 19.2823 15.1575 18.8756 16.203 18.1566V18.1533C16.8099 17.7468 17.3294 17.219 17.7301 16.602C18.1308 15.985 18.4044 15.2915 18.5343 14.5636H12.2363V10.0171H23.2383C23.3742 10.8069 23.4388 11.6136 23.4388 12.4169C23.4388 16.0099 22.1713 19.0477 19.9659 21.105L19.9676 21.1067C18.0356 22.9108 15.3812 23.9571 12.2363 23.9571C10.0784 23.96 7.96203 23.3535 6.1222 22.205C4.28238 21.0565 2.79117 19.411 1.81424 17.4512C0.998172 15.8063 0.572998 13.9891 0.572998 12.1461C0.572998 10.3031 0.998172 8.48585 1.81424 6.84093C2.79005 4.88025 4.28064 3.23364 6.12027 2.08419C7.9599 0.934746 10.0765 0.327498 12.2347 0.329971C15.1273 0.293677 17.9224 1.39437 20.0388 3.40319L16.71 6.7768Z" fill="#03045E"/>
</svg>
