<svg width="140" height="42" viewBox="0 0 140 42" fill="none" xmlns="http://www.w3.org/2000/svg">
<path d="M19.058 3.63143V32.8231C19.058 35.4904 18.2355 37.4826 16.5906 38.7998C15.7986 39.4254 14.9823 39.9095 14.1416 40.252C13.3069 40.601 12.4936 40.7755 11.7017 40.7755H7.3153C6.52332 40.7755 5.71002 40.601 4.87539 40.252C4.03467 39.9095 3.21832 39.4254 2.42634 38.7998C0.811912 37.5156 0.00469971 35.5233 0.00469971 32.8231V29.5632C0.00469971 28.0155 0.888064 27.2417 2.65479 27.2417C4.48244 27.2417 5.39627 28.0155 5.39627 29.5632V32.428C5.39627 33.2842 5.62473 34.058 6.08164 34.7495C6.53855 35.441 7.33053 35.7868 8.45758 35.7868H10.5594C11.6864 35.7868 12.4784 35.441 12.9353 34.7495C13.3922 34.058 13.6207 33.2842 13.6207 32.428V3.63143C13.6207 2.05083 14.5193 1.26052 16.3165 1.26052C18.1441 1.26052 19.058 2.05083 19.058 3.63143ZM33.7249 1.50749H43.6856C44.4775 1.50749 45.3 1.6886 46.1529 2.05082C47.0058 2.41305 47.8282 2.87406 48.6202 3.43385H48.5745C49.3665 4.05951 49.9757 4.87615 50.4022 5.88378C50.8286 6.88483 51.0418 8.04394 51.0418 9.3611V32.8231C51.0418 35.4904 50.2194 37.4826 48.5745 38.7998C47.7825 39.4254 46.9662 39.9095 46.1255 40.252C45.2908 40.601 44.4775 40.7755 43.6856 40.7755H33.7249C32.9329 40.7755 32.1165 40.601 31.2758 40.252C30.4412 39.9095 29.6279 39.4254 28.8359 38.7998C28.0439 38.1412 27.4347 37.3279 27.0082 36.3597C26.5818 35.385 26.3686 34.2062 26.3686 32.8231V9.3611C26.3686 8.04394 26.5818 6.88483 27.0082 5.88378C27.4347 4.87615 28.0439 4.05951 28.8359 3.43385H28.7902C29.5822 2.87406 30.4046 2.41305 31.2575 2.05082C32.1104 1.6886 32.9329 1.50749 33.7249 1.50749ZM34.8671 35.7868H42.5433C43.6703 35.7868 44.4623 35.441 44.9192 34.7495C45.3761 34.058 45.6046 33.2842 45.6046 32.428V9.80565C45.6046 8.98242 45.3761 8.22505 44.9192 7.53354C44.4623 6.84202 43.6703 6.49626 42.5433 6.49626H34.8671C33.7401 6.49626 32.9481 6.84202 32.4912 7.53354C32.0343 8.22505 31.8058 8.98242 31.8058 9.80565V32.428C31.8058 33.2842 32.0343 34.058 32.4912 34.7495C32.9481 35.441 33.7401 35.7868 34.8671 35.7868ZM76.9031 32.428V26.155C76.9031 25.3976 76.6442 24.6633 76.1263 23.952C75.6085 23.2473 74.6947 22.8456 73.3849 22.7468C72.532 23.8664 71.4963 24.4262 70.2779 24.4262C69.2422 24.4262 68.3558 24.0311 67.6186 23.2408C66.8937 22.4505 66.5312 21.479 66.5312 20.3265C66.5312 19.174 66.8937 18.2026 67.6186 17.4123C68.3558 16.622 69.2422 16.2268 70.2779 16.2268C70.8262 16.2268 71.3653 16.3915 71.8953 16.7208C72.4314 17.0501 72.9097 17.4452 73.33 17.9062C74.0063 17.8733 74.5272 17.758 74.8927 17.5605C75.2582 17.3629 75.5232 17.1225 75.6877 16.8393C75.8583 16.5627 75.9588 16.2433 75.9893 15.8811C76.0197 15.5189 76.035 15.1566 76.035 14.7944V9.80565C76.035 8.98242 75.7974 8.22505 75.3222 7.53354C74.8531 6.84202 74.055 6.49626 72.928 6.49626H63.3785L63.3328 39.0962C63.3328 39.7547 63.0495 40.2553 62.4829 40.5977C61.9225 40.9468 61.3071 41.1213 60.637 41.1213C58.8398 41.1213 57.9412 40.331 57.9412 38.7504V4.47112C57.9412 3.28567 58.2215 2.49537 58.7819 2.10022C59.3424 1.70507 60.0217 1.50749 60.8198 1.50749H74.0702C74.8622 1.50749 75.706 1.67214 76.6015 2.00143C77.5032 2.33072 78.35 2.77527 79.142 3.33507H79.0963C79.8883 3.96072 80.4731 4.78395 80.8508 5.80475C81.2346 6.82556 81.4265 8.01101 81.4265 9.3611V14.9426C81.4265 16.2598 81.1646 17.3366 80.6406 18.173C80.1289 19.0159 79.5837 19.6844 79.0049 20.1783C79.4009 20.4418 79.7817 20.7118 80.1472 20.9884C80.5127 21.2716 80.8173 21.5778 81.061 21.9071C81.457 22.3681 81.7677 22.9115 81.9931 23.5371C82.2246 24.1628 82.3404 24.9037 82.3404 25.7598V32.8231C82.3404 35.5233 81.3656 37.5156 79.4161 38.7998C78.4414 39.4584 77.5184 39.9523 76.6472 40.2816C75.7821 40.6109 74.9231 40.7755 74.0702 40.7755H67.3079C66.7901 40.7755 66.385 40.545 66.0925 40.084C65.8062 39.623 65.663 39.0138 65.663 38.2565C65.663 36.61 66.3027 35.7868 67.5821 35.7868H73.8418C74.9688 35.7868 75.7608 35.441 76.2177 34.7495C76.6746 34.058 76.9031 33.2842 76.9031 32.428ZM109.837 40.7755H92.0635C90.9364 40.7755 90.1749 40.4627 89.7789 39.8371C89.3829 39.2114 89.1849 38.5199 89.1849 37.7625V3.63143C89.1849 2.05083 90.0683 1.26052 91.835 1.26052C93.6627 1.26052 94.5765 2.05083 94.5765 3.63143V35.7868H109.837C110.934 35.7868 111.482 36.5935 111.482 38.2071C111.543 39.9194 110.995 40.7755 109.837 40.7755ZM129.028 25.7598V38.7504C129.028 40.331 128.129 41.1213 126.332 41.1213C124.535 41.1213 123.636 40.331 123.636 38.7504V25.6117L113.401 4.56991C113.219 4.14183 113.127 3.69728 113.127 3.23628C113.127 2.28133 113.645 1.57335 114.681 1.11235H114.635C115.305 0.848912 115.838 0.717194 116.234 0.717194C117.026 0.717194 117.635 1.14527 118.062 2.00143L126.378 18.8941C126.987 17.6428 127.642 16.2993 128.342 14.8636C129.043 13.4344 129.753 11.979 130.472 10.4972C131.184 9.01535 131.891 7.55 132.592 6.10112C133.292 4.65223 133.962 3.28567 134.602 2.00143C134.846 1.60628 135.114 1.29345 135.406 1.06295C135.693 0.832444 136.049 0.717194 136.475 0.717194C136.902 0.717194 137.404 0.848912 137.983 1.11235H137.937C139.004 1.60628 139.537 2.33072 139.537 3.28567C139.537 3.48324 139.521 3.6907 139.491 3.90803C139.461 4.11878 139.384 4.33941 139.263 4.56991C138.988 5.16263 138.647 5.88707 138.239 6.74323C137.825 7.59939 137.246 8.79143 136.503 10.3193C135.753 11.8538 134.785 13.8461 133.597 16.296C132.409 18.7525 130.886 21.9071 129.028 25.7598Z" fill="url(#paint0_linear_71_14)"/>
<defs>
<linearGradient id="paint0_linear_71_14" x1="69.7707" y1="0.717194" x2="69.7707" y2="41.1213" gradientUnits="userSpaceOnUse">
<stop stop-color="#03045E"/>
<stop offset="1" stop-color="#4361EE"/>
</linearGradient>
</defs>
</svg>
