<svg width="23" height="23" viewBox="0 0 23 23" fill="none" xmlns="http://www.w3.org/2000/svg">
<path d="M9.39299 18.6081C11.4328 18.6081 13.3139 17.9548 14.8529 16.8659L20.6426 22.6007C20.9113 22.8669 21.2655 23 21.6442 23C22.4381 23 23 22.3951 23 21.6207C23 21.2578 22.8779 20.9069 22.6091 20.6528L16.8561 14.9421C18.0653 13.3693 18.786 11.4214 18.786 9.30405C18.786 4.18622 14.5597 0 9.39299 0C4.23845 0 0 4.17412 0 9.30405C0 14.4219 4.22623 18.6081 9.39299 18.6081ZM9.39299 16.5997C5.36219 16.5997 2.02762 13.2967 2.02762 9.30405C2.02762 5.31142 5.36219 2.00842 9.39299 2.00842C13.4238 2.00842 16.7584 5.31142 16.7584 9.30405C16.7584 13.2967 13.4238 16.5997 9.39299 16.5997Z" fill="#03045E" fill-opacity="0.5"/>
</svg>
