<svg width="64" height="64" viewBox="0 0 64 64" fill="none" xmlns="http://www.w3.org/2000/svg">
<path d="M61.5111 29.5111H34.4889V2.48889C34.4889 1.11431 33.3746 0 32 0C30.6254 0 29.5111 1.11431 29.5111 2.48889V29.5111H2.48889C1.11431 29.5111 0 30.6254 0 32C0 33.3746 1.11431 34.4889 2.48889 34.4889H29.5111V61.5111C29.5111 62.8857 30.6254 64 32 64C33.3746 64 34.4889 62.8857 34.4889 61.5111V34.4889H61.5111C62.8857 34.4889 64 33.3746 64 32C64 30.6254 62.8857 29.5111 61.5111 29.5111Z" fill="#90E0EF"/>
</svg>
