<svg width="20" height="20" viewBox="0 0 20 20" fill="none" xmlns="http://www.w3.org/2000/svg">
<path d="M6.16667 18.6667H4.08333C2.93274 18.6667 2 17.734 2 16.5833V4.08333C2 2.93274 2.93274 2 4.08333 2H7.20833M6.16667 18.6667V12.4167C6.16667 11.8414 6.63304 11.375 7.20833 11.375H13.4583C14.0336 11.375 14.5 11.8414 14.5 12.4167V18.6667M6.16667 18.6667H14.5M7.20833 2V5.125C7.20833 5.70029 7.67471 6.16667 8.25 6.16667H12.4167C12.992 6.16667 13.4583 5.70029 13.4583 5.125V2M7.20833 2H13.4583M14.5 18.6667H16.5833C17.734 18.6667 18.6667 17.734 18.6667 16.5833V7.02961C18.6667 6.47707 18.4472 5.94718 18.0565 5.55647L15.1102 2.6102C14.7195 2.21949 14.1896 2 13.6371 2H13.4583" stroke="white" stroke-width="2.08333" stroke-linecap="round" stroke-linejoin="round"/>
</svg>
