<svg width="26" height="22" viewBox="0 0 26 22" fill="none" xmlns="http://www.w3.org/2000/svg">
<path d="M25.9632 3.15288C25.0131 3.58299 23.9822 3.86973 22.9108 4.00285C24.0125 3.33721 24.8514 2.28243 25.2456 1.02284C24.2147 1.63727 23.0827 2.08786 21.8698 2.33364C20.8995 1.28909 19.5149 0.633694 17.9887 0.633694C15.0576 0.633694 12.6723 3.05048 12.6723 6.02026C12.6723 6.44012 12.7128 6.84974 12.8138 7.24913C8.39705 7.02383 4.47549 4.88355 1.85775 1.61679C1.40293 2.41556 1.14015 3.33722 1.14015 4.33055C1.14015 6.19435 2.08011 7.84308 3.50521 8.81594C2.636 8.78522 1.81733 8.53944 1.09972 8.14006V8.2015C1.09972 10.8129 2.92911 12.9941 5.36492 13.4857C4.92021 13.6085 4.44517 13.6802 3.96003 13.6802C3.61639 13.6802 3.28286 13.6495 2.95943 13.5881C3.6366 15.7284 5.59738 17.2849 7.92201 17.3259C6.10273 18.7698 3.80842 19.63 1.32208 19.63C0.897581 19.63 0.473082 19.6095 0.048584 19.5583C2.40354 21.0842 5.1931 21.9751 8.1949 21.9751C17.9786 21.9751 23.3252 13.7622 23.3252 6.64493C23.3252 6.4094 23.3252 6.17386 23.3151 5.94857C24.3561 5.18052 25.2557 4.23839 25.9632 3.15288Z" fill="#03045E"/>
</svg>
